# xmcd CD database file
#
# Track frame offsets:
#	150
#	83601
#	129587
#	196695
#	228970
#	312623
#
# Disc length: 4549 seconds
#
# Revision: 0
# Processed by: cddbd v1.5.2PL0 Copyright (c) Steve Scherf et al.
# Submitted via: CDex 1.51
#
DISCID=4311c306
DTITLE=John Coltrane - Live at the Half Note
DYEAR=1900
DGENRE=Jazz
TTITLE0=Chim Chim Cheree
TTITLE1=I Want to Talk About You
TTITLE2=Impressions
TTITLE3=One Up One Down
TTITLE4=Song of Praise
TTITLE5=Untitled Original
EXTD=
EXTT0=
EXTT1=
EXTT2=
EXTT3=
EXTT4=
EXTT5=
PLAYORDER=
